<?xml version="1.0" standalone="no"?>
<!DOCTYPE svg PUBLIC "-//W3C//DTD SVG 20010904//EN"
 "http://www.w3.org/TR/2001/REC-SVG-20010904/DTD/svg10.dtd">
<svg version="1.0" xmlns="http://www.w3.org/2000/svg"
 width="256.000000pt" height="256.000000pt" viewBox="0 0 256.000000 256.000000"
 preserveAspectRatio="xMidYMid meet">

<g transform="translate(0.000000,256.000000) scale(0.100000,-0.100000)"
fill="#000000" stroke="none">
<path d="M519 2538 c-37 -13 -86 -37 -108 -53 -65 -44 -213 -205 -270 -292
-306 -466 -86 -1105 444 -1285 l80 -27 -4 -94 c-7 -191 29 -277 178 -431 133
-136 209 -195 336 -257 146 -71 247 -93 420 -93 112 0 158 4 229 22 287 72
520 266 647 537 62 132 83 235 83 400 0 173 -22 274 -94 421 -58 120 -131 214
-266 345 -105 101 -166 138 -262 158 -84 18 -214 11 -304 -15 -13 -4 -24 8
-42 43 -103 203 -342 435 -561 545 -181 92 -378 121 -506 76z m281 -98 c232
-56 491 -252 650 -493 33 -50 60 -95 60 -101 0 -9 -80 -50 -85 -43 -1 1 -28
43 -60 92 -157 244 -449 445 -671 462 -154 12 -234 -56 -234 -200 0 -188 137
-437 335 -608 42 -36 94 -77 116 -90 21 -13 38 -28 38 -34 0 -5 -12 -25 -28
-43 l-28 -32 -73 51 c-157 111 -328 319 -399 486 -85 199 -81 379 10 478 85
92 199 115 369 75z m13 -213 c87 -32 185 -91 274 -166 116 -98 270 -306 235
-318 -27 -10 -179 -127 -234 -181 -66 -64 -63 -64 -165 12 -86 65 -203 193
-259 282 -58 94 -104 221 -104 292 0 61 12 89 43 103 34 14 136 3 210 -24z
m-552 -172 c1 -31 -8 -56 -40 -110 -46 -78 -50 -104 -22 -129 28 -25 62 -16
86 21 11 18 22 32 25 32 3 0 22 -35 42 -77 20 -42 44 -88 53 -102 16 -24 15
-27 -39 -108 -31 -46 -56 -90 -56 -98 0 -20 37 -54 59 -54 19 0 43 25 94 99
l28 40 52 -57 c69 -75 181 -176 239 -213 l47 -31 -48 -91 c-27 -51 -57 -113
-66 -139 -12 -34 -23 -48 -36 -48 -26 0 -145 46 -186 71 l-35 22 81 38 c86 40
100 56 85 98 -13 37 -47 37 -127 1 -37 -17 -88 -33 -113 -37 -40 -5 -48 -3
-75 23 -44 42 -116 154 -145 224 -80 199 -74 442 17 621 17 35 39 75 48 88
l16 24 7 -34 c4 -19 8 -52 9 -74z m1734 -294 c72 -36 107 -72 144 -151 23 -48
26 -67 26 -160 -1 -235 -120 -476 -350 -705 -229 -230 -470 -349 -705 -350
-93 0 -112 3 -160 26 -79 37 -115 72 -151 144 -145 295 143 832 588 1097 161
96 311 140 456 134 74 -3 98 -8 152 -35z m370 -416 c122 -246 115 -560 -17
-794 -34 -61 -104 -155 -136 -185 -32 -28 -111 -18 -207 27 -42 20 -86 37 -96
37 -25 0 -52 -43 -44 -69 7 -24 67 -60 140 -86 28 -10 54 -21 58 -25 5 -4 -34
-28 -85 -53 -274 -136 -599 -117 -854 49 l-59 39 100 7 c98 6 101 6 145 -22
25 -16 66 -38 92 -51 44 -21 48 -21 72 -5 16 10 26 26 26 41 0 27 -9 37 -58
66 l-34 20 104 52 c146 73 254 153 390 289 l118 118 49 -74 c45 -67 66 -86 92
-86 14 0 49 38 49 54 0 8 -28 58 -63 110 l-64 94 25 39 c13 21 43 78 67 126
l42 88 27 -45 c22 -38 32 -46 56 -46 28 0 60 30 60 55 0 6 -22 49 -49 96 l-48
85 5 99 5 99 24 -30 c13 -16 43 -69 68 -119z"/>
<path d="M1721 1689 c-107 -21 -280 -99 -351 -158 -31 -26 -34 -31 -25 -57 16
-45 50 -42 134 10 152 93 345 139 421 99 79 -41 90 -152 31 -312 -36 -99 -65
-151 -139 -250 -183 -247 -458 -421 -668 -425 -131 -2 -159 26 -159 153 1 97
37 208 106 323 57 95 61 127 15 143 -26 9 -31 6 -58 -25 -46 -55 -126 -226
-149 -319 -72 -286 76 -434 362 -362 176 44 345 147 504 306 158 158 261 327
305 499 70 277 -62 428 -329 375z"/>
<path d="M1182 1378 c-28 -28 -3 -88 37 -88 22 0 51 30 51 53 0 38 -61 62 -88
35z"/>
</g>
</svg>
